/vscmnt/brussel_pixiu_data/_data_brussel/112/vsc11236/PredSimResults/SUBJ06mtu3D/worker3.mot
version=1
nRows=7
nColumns=50
inDegrees=yes
endheader
                time	         pelvis_tilt	         pelvis_list	     pelvis_rotation	           pelvis_tx	           pelvis_ty	           pelvis_tz	       hip_flexion_r	     hip_adduction_r	      hip_rotation_r	        knee_angle_r	       ankle_angle_r	         mtp_angle_r	       hip_flexion_l	     hip_adduction_l	      hip_rotation_l	        knee_angle_l	       ankle_angle_l	         mtp_angle_l	    lumbar_extension	      lumbar_bending	     lumbar_rotation	 ercspn_r/activation	 intobl_r/activation	 extobl_r/activation	    abd_r/activation	    add_r/activation	hamstrings_r/activation	bifemsh_r/activation	glut_max_r/activation	iliopsoas_r/activation	rect_fem_r/activation	  vasti_r/activation	gastroc_r/activation	 soleus_r/activation	tib_ant_r/activation	 ercspn_l/activation	 intobl_l/activation	 extobl_l/activation	    abd_l/activation	    add_l/activation	hamstrings_l/activation	bifemsh_l/activation	glut_max_l/activation	iliopsoas_l/activation	rect_fem_l/activation	  vasti_l/activation	gastroc_l/activation	 soleus_l/activation	tib_ant_l/activation	
          0.62722109	         -6.09770355	          1.34389534	         -6.19833428	          0.70248762	          0.92933300	          0.01250619	        -11.61471685	         -0.69547033	          3.19971040	         -8.39062521	          9.59024151	         30.39013239	         30.84052055	         -0.69343964	         -3.27802971	         -5.13514683	          3.70804275	          0.22438688	         -4.92840446	          0.70745659	         -1.80225692	          0.10452987	          0.00999999	          0.01000000	          0.05567154	          0.02453601	          0.01326108	          0.13460966	          0.04914960	          0.45264079	          0.01209070	          0.01000001	          0.37102836	          0.33536898	          0.02263797	          0.12621668	          0.14743410	          0.01215717	          0.00999999	          0.15128887	          0.15510410	          0.24745620	          0.04702546	          0.15517440	          0.01000007	          0.00999999	          0.04451173	          0.01513821	          0.38051461	
          0.63976551	         -6.17101904	          1.29570097	         -6.19823244	          0.71952521	          0.92748928	          0.01182431	        -11.90891582	         -0.72091204	          2.74435511	         -9.60517544	          8.78748512	         32.36016286	         30.82482944	         -0.53319858	         -2.74606693	         -6.81231435	          3.36484681	          0.19264127	         -4.61938580	          0.41753607	         -1.47625025	          0.09918849	          0.00999999	          0.01000000	          0.04604478	          0.05707417	          0.01948774	          0.11133288	          0.04065063	          0.44636747	          0.01000004	          0.01717495	          0.34225686	          0.31350552	          0.01872340	          0.10439123	          0.16881949	          0.01005495	          0.02526742	          0.12512792	          0.13933198	          0.20466595	          0.08033572	          0.12834156	          0.01000000	          0.00999999	          0.03681474	          0.01252051	          0.44052757	
          0.65230993	         -6.23126701	          1.24830049	         -6.14873302	          0.73676873	          0.92603677	          0.01102663	        -12.02918854	         -0.74329598	          2.25564635	        -11.14694681	          7.78703418	         34.39835991	         30.66668487	         -0.36995614	         -2.29204921	         -8.24605370	          2.86679400	          0.18417863	         -4.30819276	          0.11859393	         -1.14979367	          0.11306488	          0.00999999	          0.01000000	          0.03808269	          0.04720511	          0.02543478	          0.09208114	          0.03362130	          0.44486595	          0.01000024	          0.02514856	          0.30640620	          0.28843412	          0.01548574	          0.11711120	          0.13962714	          0.00999999	          0.08121300	          0.14006752	          0.12578929	          0.16927501	          0.11438605	          0.10614866	          0.00999999	          0.00999999	          0.03044871	          0.01035546	          0.49253498	
          0.66485436	         -6.27805312	          1.19179323	         -6.05339159	          0.75401612	          0.92511897	          0.01012957	        -11.91699653	         -0.75243039	          1.73409392	        -13.08698941	          6.55352823	         36.46118559	         30.45139935	         -0.20141286	         -1.91306932	         -9.59057145	          2.34720082	          0.15470143	         -4.01757608	         -0.17996369	         -0.82599332	          0.14251164	          0.00999999	          0.01000000	          0.03149741	          0.08977379	          0.02842637	          0.07615842	          0.02780748	          0.43688471	          0.01209069	          0.02079986	          0.25342227	          0.24402119	          0.01280793	          0.12886079	          0.11548274	          0.01000000	          0.12949795	          0.19687124	          0.11009530	          0.14000389	          0.15548815	          0.08779338	          0.01000000	          0.00999999	          0.02518351	          0.00999999	          0.52184378	
          0.67739878	         -6.30933510	          1.12931688	         -5.91664015	          0.77112980	          0.92480864	          0.00915699	        -11.50289653	         -0.75293943	          1.17304213	        -15.53526855	          5.10861668	         38.41023095	         30.21581115	         -0.02803318	         -1.59763515	        -10.96328121	          2.09277352	          0.12565019	         -3.75787875	         -0.48193983	         -0.50960321	          0.16960993	          0.00999999	          0.00999999	          0.02605086	          0.14156973	          0.03218400	          0.06298907	          0.02299900	          0.41272992	          0.01000004	          0.01720314	          0.20960035	          0.20182491	          0.01059318	          0.13125664	          0.09551340	          0.00999999	          0.17003708	          0.22803648	          0.09937401	          0.11579434	          0.18230615	          0.07261210	          0.01000000	          0.02925563	          0.02082876	          0.01015142	          0.52718313	
          0.68994320	         -6.32537154	          1.06458858	         -5.74152708	          0.78797476	          0.92515930	          0.00813600	        -10.73528879	         -0.75442399	          0.56160878	        -18.55881366	          3.49376165	         39.97008003	         29.94389953	          0.14890685	         -1.33244475	        -12.30856835	          2.07026665	          0.10357873	         -3.53753009	         -0.79132039	         -0.20503215	          0.18628095	          0.00999999	          0.01000000	          0.02154613	          0.19259057	          0.03611993	          0.05209697	          0.01902200	          0.37161453	          0.01000000	          0.01422836	          0.17335614	          0.16692523	          0.00999999	          0.12778242	          0.07899717	          0.00999999	          0.19041158	          0.23448665	          0.09136601	          0.09577112	          0.18208246	          0.06005597	          0.01000000	          0.07404552	          0.01722704	          0.01000000	          0.52222626	
          0.70248762	         -6.32780854	          0.99719614	         -5.53217959	          0.80448238	          0.92617267	          0.00709270	         -9.61018513	         -0.76948496	         -0.10861664	        -22.14951108	          1.82449919	         40.66622550	         29.57050972	          0.32954022	         -1.08822450	        -13.48279393	          2.20198740	          0.08628491	         -3.35850998	         -1.10646325	          0.08512406	          0.18527826	          0.01000000	          0.01000000	          0.01782036	          0.20576550	          0.02987418	          0.04308836	          0.01573270	          0.32001780	          0.01000000	          0.01176799	          0.14337930	          0.13806043	          0.00999999	          0.12163598	          0.06533694	          0.00999999	          0.19214748	          0.20655668	          0.08541012	          0.07921033	          0.16802628	          0.04967106	          0.01000000	          0.11176892	          0.01424813	          0.01000000	          0.50477169	
